<svg width="18" height="18" viewBox="0 0 18 18" fill="none" xmlns="http://www.w3.org/2000/svg">
<path d="M13.7461 16.875C13.0598 16.875 12.0958 16.6268 10.6523 15.8204C8.89696 14.836 7.53922 13.9272 5.79336 12.1859C4.11008 10.5037 3.29094 9.41453 2.1445 7.32836C0.849341 4.97289 1.07012 3.7382 1.31692 3.21051C1.61082 2.57981 2.04465 2.20258 2.6054 1.82816C2.92389 1.61949 3.26094 1.44061 3.61227 1.29379C3.64743 1.27867 3.68012 1.26426 3.7093 1.25125C3.88332 1.17285 4.147 1.05438 4.48098 1.18094C4.70387 1.26461 4.90286 1.43582 5.21434 1.74344C5.85313 2.37344 6.72606 3.77652 7.04809 4.46559C7.2643 4.93 7.40739 5.23656 7.40774 5.58039C7.40774 5.98293 7.20524 6.29336 6.9595 6.6284C6.91344 6.69133 6.86774 6.75145 6.82344 6.8098C6.5559 7.16137 6.49719 7.26297 6.53586 7.44438C6.61426 7.80895 7.19891 8.89422 8.15973 9.85293C9.12055 10.8116 10.1745 11.3594 10.5405 11.4374C10.7297 11.4779 10.8334 11.4167 11.1962 11.1396C11.2482 11.0999 11.3016 11.0588 11.3575 11.0177C11.7323 10.7389 12.0283 10.5416 12.4214 10.5416H12.4235C12.7656 10.5416 13.0584 10.69 13.5436 10.9347C14.1764 11.2539 15.6216 12.1156 16.2555 12.7551C16.5638 13.0659 16.7357 13.2641 16.8198 13.4867C16.9463 13.8217 16.8272 14.0843 16.7495 14.2601C16.7364 14.2893 16.722 14.3213 16.7069 14.3568C16.5589 14.7075 16.379 15.0438 16.1694 15.3616C15.7957 15.9205 15.417 16.3533 14.7849 16.6476C14.4603 16.8011 14.1051 16.8789 13.7461 16.875Z" fill="#8492A6"/>
</svg>
