<svg width="36" height="36" viewBox="0 0 36 36" fill="none" xmlns="http://www.w3.org/2000/svg">
<circle cx="18" cy="18" r="18" fill="#E8F3FF"/>
<g clip-path="url(#clip0)">
<path d="M16.4958 12.439C16.438 13.3701 17.5622 13.8641 18.2115 13.2149C18.8594 12.5669 18.3682 11.4412 17.4357 11.4991C16.9303 11.5307 16.5249 11.9444 16.4958 12.439ZM16.8034 8.61376C17.2007 8.26152 17.7993 8.26152 18.1966 8.61376L23.3162 13.1527C23.5412 13.3518 23.6698 13.638 23.6698 13.9386V27.5997C23.6698 28.1795 23.1994 28.6499 22.6196 28.6499H12.3804C11.8006 28.6499 11.3302 28.1795 11.3302 27.5997V13.9386C11.3302 13.638 11.4588 13.3518 11.6838 13.1527C15.0531 10.1659 13.8564 11.2268 16.8034 8.61376Z" fill="#D1E7FF"/>
<path d="M18.1966 8.61384C17.7991 8.26137 17.2009 8.26137 16.8034 8.61384L11.6837 13.1528C11.4588 13.3519 11.3302 13.6381 11.3302 13.9387C11.3302 28.5667 11.3205 27.6542 11.3501 27.804C11.5643 28.8912 13.1903 28.6587 13.1238 27.5526C12.7575 21.4658 15.6128 15.7947 20.9956 12.6676C21.5231 12.3612 21.5989 11.6302 21.1425 11.2255L18.1966 8.61384ZM16.4958 12.4391C16.5268 11.9381 16.9346 11.5303 17.4357 11.4992C18.3667 11.4414 18.8608 12.5657 18.2115 13.2149C17.5636 13.8629 16.4379 13.3716 16.4958 12.4391Z" fill="#E8F3FF"/>
<path d="M21.2194 19.2859V23.9242C21.2194 24.6974 20.5923 25.3244 19.8191 25.3244H15.1808C14.4077 25.3244 13.7806 24.6974 13.7806 23.9242V19.2859C13.7806 18.5127 14.4077 17.8857 15.1808 17.8857H19.8191C20.5923 17.8857 21.2194 18.5127 21.2194 19.2859Z" fill="#E8F3FF"/>
<path d="M23.3197 25.5431V13.9385C23.3197 13.7383 23.2338 13.5474 23.0841 13.4146L17.9644 8.87592C17.6997 8.64125 17.3004 8.64121 17.0356 8.87592L14.8554 10.8086C15.2325 11.2719 15.7307 11.6372 16.3103 11.8524C16.5411 11.4323 16.9878 11.1469 17.5 11.1469C18.2479 11.1469 18.8565 11.7554 18.8565 12.5034C18.8565 12.6967 18.6997 12.8534 18.5064 12.8534C18.3131 12.8534 18.1564 12.6967 18.1564 12.5034C18.1564 12.1415 17.8619 11.847 17.5 11.847C17.1381 11.847 16.8436 12.1415 16.8436 12.5034C16.8436 12.8653 17.1381 13.1597 17.5 13.1597C17.6933 13.1597 17.8501 13.3165 17.8501 13.5098C17.8501 13.7031 17.6933 13.8599 17.5 13.8599C16.7631 13.8599 16.162 13.2691 16.1443 12.5365C15.4221 12.2847 14.8003 11.8415 14.3312 11.2734L11.9159 13.4146C11.7661 13.5473 11.6803 13.7383 11.6803 13.9385V27.5997C11.6803 27.9857 11.9943 28.2998 12.3804 28.2998H22.6196C23.0057 28.2998 23.3197 27.9857 23.3197 27.5997C23.3197 27.4064 23.4765 27.2496 23.6698 27.2496C23.8631 27.2496 24.0199 27.4064 24.0199 27.5997C24.0199 28.3718 23.3917 28.9999 22.6196 28.9999H12.3804C11.6083 28.9999 10.9801 28.3718 10.9801 27.5997V13.9385C10.9801 13.5381 11.1519 13.1562 11.4515 12.8907L13.9304 10.693C13.5831 10.0859 13.3868 9.38697 13.3868 8.65272C13.3868 8.45939 13.5435 8.30266 13.7368 8.30266C13.9301 8.30266 14.0869 8.45939 14.0869 8.65272C14.0869 9.21058 14.2236 9.7439 14.4677 10.2167L16.5711 8.35201C17.1007 7.88254 17.8993 7.88254 18.4288 8.35201L23.5485 12.8907C23.848 13.1562 24.0198 13.5381 24.0198 13.9385V25.5431C24.0198 25.7364 23.8631 25.8932 23.6698 25.8932C23.4764 25.8932 23.3197 25.7365 23.3197 25.5431ZM19.8191 17.5355C20.7843 17.5355 21.5694 18.3207 21.5694 19.2858V23.9241C21.5694 24.8892 20.7843 25.6744 19.8191 25.6744H15.1809C14.2157 25.6744 13.4306 24.8892 13.4306 23.9241V19.2858C13.4306 18.3207 14.2157 17.5355 15.1809 17.5355H19.8191ZM19.8191 18.2356H15.1809C14.6018 18.2356 14.1307 18.7067 14.1307 19.2858V23.9241C14.1307 24.5031 14.6018 24.9743 15.1809 24.9743H19.8191C20.3982 24.9743 20.8693 24.5031 20.8693 23.9241V19.2858C20.8693 18.7067 20.3982 18.2356 19.8191 18.2356Z" fill="#2E58FF"/>
</g>
<defs>
<clipPath id="clip0">
<rect width="21" height="21" fill="white" transform="translate(7 8)"/>
</clipPath>
</defs>
</svg>
